<?xml version="1.0" encoding="UTF-8" standalone="no"?>
<!DOCTYPE svg PUBLIC "-//W3C//DTD SVG 1.1//EN"
 "http://www.w3.org/Graphics/SVG/1.1/DTD/svg11.dtd">
<!-- Generated by graphviz version 2.40.1 (20161225.0304)
 -->
<!-- Title: T Pages: 1 -->
<svg width="150" height="110"
 viewBox="0.00 0.00 258.00 188.00" xmlns="http://www.w3.org/2000/svg" xmlns:xlink="http://www.w3.org/1999/xlink">
<g id="graph0" class="graph" transform="scale(1 1) rotate(0) translate(4 184)">
<title>T</title>
<polygon fill="#ffffff" stroke="transparent" points="-4,4 -4,-184 254,-184 254,4 -4,4"/>
<!-- node11 -->
<g id="node1" class="node">
<title>node11</title>
<ellipse fill="none" stroke="#000000" cx="125" cy="-162" rx="18" ry="18"/>
<text text-anchor="middle" x="125" y="-157.8" font-family="Times,serif" font-size="14.00" fill="#000000">1</text>
</g>
<!-- invis3 -->
<!-- node11&#45;&#45;invis3 -->
<!-- 2 -->
<g id="node7" class="node">
<title>2</title>
<ellipse fill="none" stroke="#000000" cx="71" cy="-90" rx="18" ry="18"/>
<text text-anchor="middle" x="71" y="-85.8" font-family="Times,serif" font-size="14.00" fill="#000000">2</text>
</g>
<!-- node11&#45;&#45;2 -->
<g id="edge1" class="edge">
<title>node11&#45;&#45;2</title>
<path fill="none" stroke="#000000" d="M114.0723,-147.4297C104.7035,-134.938 91.2755,-117.034 81.9115,-104.5486"/>
</g>
<!-- 0 -->
<g id="node9" class="node">
<title>0</title>
<ellipse fill="none" stroke="#000000" cx="179" cy="-90" rx="18" ry="18"/>
<text text-anchor="middle" x="179" y="-85.8" font-family="Times,serif" font-size="14.00" fill="#000000">0</text>
</g>
<!-- node11&#45;&#45;0 -->
<g id="edge8" class="edge">
<title>node11&#45;&#45;0</title>
<path fill="none" stroke="#000000" d="M135.9277,-147.4297C145.2965,-134.938 158.7245,-117.034 168.0885,-104.5486"/>
</g>
<!-- node12 -->
<g id="node2" class="node">
<title>node12</title>
<ellipse fill="none" stroke="#000000" cx="98" cy="-18" rx="18" ry="18"/>
<text text-anchor="middle" x="98" y="-13.8" font-family="Times,serif" font-size="14.00" fill="#000000">1</text>
</g>
<!-- node13 -->
<g id="node3" class="node">
<title>node13</title>
<ellipse fill="none" stroke="#000000" cx="152" cy="-18" rx="18" ry="18"/>
<text text-anchor="middle" x="152" y="-13.8" font-family="Times,serif" font-size="14.00" fill="#000000">1</text>
</g>
<!-- invis2 -->
<!-- node13&#45;&#45;invis2 -->
<!-- invis1 -->
<!-- invis1&#45;&#45;node12 -->
<!-- &#45;2 -->
<g id="node10" class="node">
<title>&#45;2</title>
<ellipse fill="none" stroke="#000000" cx="232" cy="-18" rx="18" ry="18"/>
<text text-anchor="middle" x="232" y="-13.8" font-family="Times,serif" font-size="14.00" fill="#000000">&#45;2</text>
</g>
<!-- invis2&#45;&#45;&#45;2 -->
<!-- invis3&#45;&#45;0 -->
<!-- 2&#45;&#45;node12 -->
<g id="edge4" class="edge">
<title>2&#45;&#45;node12</title>
<path fill="none" stroke="#000000" d="M77.3986,-72.937C81.7026,-61.4596 87.3529,-46.3922 91.6473,-34.9405"/>
</g>
<!-- 2&#45;&#45;invis1 -->
<!-- 2&#45;&#45;invis3 -->
<!-- 3 -->
<g id="node8" class="node">
<title>3</title>
<ellipse fill="none" stroke="#000000" cx="18" cy="-18" rx="18" ry="18"/>
<text text-anchor="middle" x="18" y="-13.8" font-family="Times,serif" font-size="14.00" fill="#000000">3</text>
</g>
<!-- 2&#45;&#45;3 -->
<g id="edge2" class="edge">
<title>2&#45;&#45;3</title>
<path fill="none" stroke="#000000" d="M60.2747,-75.4297C51.0794,-62.938 37.9,-45.034 28.7094,-32.5486"/>
</g>
<!-- 3&#45;&#45;invis1 -->
<!-- 0&#45;&#45;node13 -->
<g id="edge9" class="edge">
<title>0&#45;&#45;node13</title>
<path fill="none" stroke="#000000" d="M172.6014,-72.937C168.2974,-61.4596 162.6471,-46.3922 158.3527,-34.9405"/>
</g>
<!-- 0&#45;&#45;invis2 -->
<!-- 0&#45;&#45;&#45;2 -->
<g id="edge11" class="edge">
<title>0&#45;&#45;&#45;2</title>
<path fill="none" stroke="#000000" d="M189.7253,-75.4297C198.9206,-62.938 212.1,-45.034 221.2906,-32.5486"/>
</g>
</g>
</svg>
