<?xml version="1.0" encoding="UTF-8" standalone="no"?>
<!DOCTYPE svg PUBLIC "-//W3C//DTD SVG 1.1//EN"
 "http://www.w3.org/Graphics/SVG/1.1/DTD/svg11.dtd">
<!-- Generated by graphviz version 2.40.1 (20161225.0304)
 -->
<!-- Title: G Pages: 1 -->
<svg width="342pt" height="138pt"
 viewBox="0.00 0.00 341.50 137.95" xmlns="http://www.w3.org/2000/svg" xmlns:xlink="http://www.w3.org/1999/xlink">
<g id="graph0" class="graph" transform="scale(1 1) rotate(0) translate(4 133.9503)">
<title>G</title>
<polygon fill="#ffffff" stroke="transparent" points="-4,4 -4,-133.9503 337.5028,-133.9503 337.5028,4 -4,4"/>
<!-- 22 -->
<g id="node1" class="node">
<title>22</title>
<ellipse fill="none" stroke="#000000" cx="18.9503" cy="-41.9503" rx="18.9007" ry="18.9007"/>
<text text-anchor="middle" x="18.9503" y="-37.7503" font-family="Times,serif" font-size="14.00" fill="#000000">22</text>
</g>
<!-- 25 -->
<g id="node2" class="node">
<title>25</title>
<ellipse fill="none" stroke="#000000" cx="92.8509" cy="-65.9503" rx="18.9007" ry="18.9007"/>
<text text-anchor="middle" x="92.8509" y="-61.7503" font-family="Times,serif" font-size="14.00" fill="#000000">25</text>
</g>
<!-- 22&#45;&#45;25 -->
<g id="edge1" class="edge">
<title>22&#45;&#45;25</title>
<path fill="none" stroke="#000000" d="M37.2178,-47.8829C48.6728,-51.603 63.3786,-56.3788 74.7934,-60.0859"/>
</g>
<!-- 10 -->
<g id="node4" class="node">
<title>10</title>
<ellipse fill="none" stroke="#000000" cx="166.7514" cy="-18.9503" rx="18.9007" ry="18.9007"/>
<text text-anchor="middle" x="166.7514" y="-14.7503" font-family="Times,serif" font-size="14.00" fill="#000000">10</text>
</g>
<!-- 22&#45;&#45;10 -->
<g id="edge5" class="edge">
<title>22&#45;&#45;10</title>
<path fill="none" stroke="#000000" d="M37.9701,-38.9905C66.3498,-34.5742 119.4674,-26.3084 147.8046,-21.8987"/>
</g>
<!-- 6 -->
<g id="node3" class="node">
<title>6</title>
<ellipse fill="none" stroke="#000000" cx="166.7514" cy="-111.9503" rx="18" ry="18"/>
<text text-anchor="middle" x="166.7514" y="-107.7503" font-family="Times,serif" font-size="14.00" fill="#000000">6</text>
</g>
<!-- 25&#45;&#45;6 -->
<g id="edge2" class="edge">
<title>25&#45;&#45;6</title>
<path fill="none" stroke="#000000" d="M109.2518,-76.1592C121.8386,-83.9939 139.0899,-94.7321 151.4055,-102.3981"/>
</g>
<!-- 42 -->
<g id="node5" class="node">
<title>42</title>
<ellipse fill="none" stroke="#000000" cx="240.652" cy="-65.9503" rx="18.9007" ry="18.9007"/>
<text text-anchor="middle" x="240.652" y="-61.7503" font-family="Times,serif" font-size="14.00" fill="#000000">42</text>
</g>
<!-- 25&#45;&#45;42 -->
<g id="edge6" class="edge">
<title>25&#45;&#45;42</title>
<path fill="none" stroke="#000000" d="M111.8707,-65.9503C140.0945,-65.9503 192.785,-65.9503 221.2358,-65.9503"/>
</g>
<!-- 6&#45;&#45;42 -->
<g id="edge7" class="edge">
<title>6&#45;&#45;42</title>
<path fill="none" stroke="#000000" d="M182.0637,-102.4191C194.4086,-94.7348 211.7288,-83.9537 224.3341,-76.1075"/>
</g>
<!-- 10&#45;&#45;42 -->
<g id="edge3" class="edge">
<title>10&#45;&#45;42</title>
<path fill="none" stroke="#000000" d="M182.7867,-29.1486C195.1823,-37.0321 212.2603,-47.8934 224.648,-55.7719"/>
</g>
<!-- 56 -->
<g id="node6" class="node">
<title>56</title>
<ellipse fill="none" stroke="#000000" cx="314.5526" cy="-65.9503" rx="18.9007" ry="18.9007"/>
<text text-anchor="middle" x="314.5526" y="-61.7503" font-family="Times,serif" font-size="14.00" fill="#000000">56</text>
</g>
<!-- 42&#45;&#45;56 -->
<g id="edge4" class="edge">
<title>42&#45;&#45;56</title>
<path fill="none" stroke="#000000" d="M259.6832,-65.9503C270.7169,-65.9503 284.5632,-65.9503 295.5858,-65.9503"/>
</g>
</g>
</svg>
